<?xml version="1.0" standalone="no"?>
<!DOCTYPE svg PUBLIC "-//W3C//DTD SVG 20010904//EN"
 "http://www.w3.org/TR/2001/REC-SVG-20010904/DTD/svg10.dtd">
<svg version="1.0" xmlns="http://www.w3.org/2000/svg"
 width="64.000000pt" height="64.000000pt" viewBox="0 0 64.000000 64.000000"
 preserveAspectRatio="xMidYMid meet">
<metadata>
Created by potrace 1.10, written by Peter Selinger 2001-2011
</metadata>
<g transform="translate(0.000000,64.000000) scale(0.100000,-0.100000)"
fill="#f9f9f9" stroke="none">
<path d="M318 514 c-5 -4 -8 -18 -8 -31 0 -20 -5 -23 -36 -23 -31 0 -35 3 -32
23 2 14 -2 22 -12 22 -10 0 -14 -8 -12 -22 2 -16 -2 -23 -13 -23 -9 0 -19 -9
-22 -20 -4 -15 -14 -20 -39 -20 -24 0 -34 -5 -34 -15 0 -10 11 -15 35 -15 l35
0 0 -71 0 -71 -35 4 c-27 3 -35 0 -35 -12 0 -12 8 -15 35 -12 32 4 35 2 35
-23 0 -18 6 -28 20 -32 16 -4 20 -14 20 -49 0 -32 4 -44 15 -44 11 0 15 12 15
45 0 43 1 45 30 45 17 0 30 -4 30 -10 0 -5 7 -10 15 -10 8 0 15 5 15 10 0 6
11 10 25 10 21 0 25 -5 25 -30 0 -20 5 -30 15 -30 10 0 15 10 15 30 0 23 5 30
19 30 11 0 23 5 26 10 3 5 19 10 36 10 19 0 29 5 29 15 0 10 -10 15 -30 15
-28 0 -30 3 -30 35 l0 35 48 0 c37 0 49 4 49 15 0 11 -12 15 -49 15 l-48 0 0
45 c0 33 4 45 15 45 23 0 8 24 -25 38 -16 7 -32 22 -35 33 -8 25 -22 24 -30
-1 -4 -14 -15 -20 -35 -20 -25 0 -29 4 -32 31 -2 17 -6 27 -10 23z m119 -72
c21 -16 23 -25 23 -107 -1 -50 -1 -102 0 -117 0 -21 -4 -28 -19 -28 -11 0 -23
-5 -26 -10 -4 -7 -11 -7 -18 -2 -15 12 -139 13 -153 1 -6 -5 -18 -3 -30 5 -16
12 -19 29 -21 107 -1 51 -4 98 -7 105 -2 6 2 21 10 32 13 18 22 20 109 16 58
-2 95 0 95 6 0 14 12 12 37 -8z"/>
<path d="M272 415 c-36 -19 -55 -54 -56 -102 -1 -39 3 -49 38 -80 35 -32 42
-35 80 -29 82 13 128 95 92 165 -29 54 -98 75 -154 46z m48 -15 c0 -5 -7 -10
-15 -10 -8 0 -15 5 -15 10 0 6 7 10 15 10 8 0 15 -4 15 -10z m50 -10 c0 -13
-7 -20 -20 -20 -13 0 -20 7 -20 20 0 13 7 20 20 20 13 0 20 -7 20 -20z m-90
-20 c0 -25 -4 -30 -25 -30 -31 0 -31 7 -3 37 27 29 28 29 28 -7z m111 -18
c-25 -3 -31 -8 -31 -28 0 -21 -5 -24 -35 -24 -32 0 -35 2 -35 30 0 33 29 44
31 13 1 -17 2 -17 6 0 3 10 14 17 29 17 18 0 24 5 24 23 l1 22 21 -25 20 -25
-31 -3z m-74 22 c-3 -3 -12 -4 -19 -1 -8 3 -5 6 6 6 11 1 17 -2 13 -5z m111
-56 c3 -14 -3 -18 -27 -18 -25 0 -31 4 -31 21 0 16 5 20 27 17 17 -2 29 -10
31 -20z m-148 -14 c0 -14 4 -23 10 -19 6 3 11 -4 11 -17 l2 -23 4 23 c7 37 33
27 33 -13 0 -32 -3 -35 -28 -35 -34 0 -77 43 -84 83 -5 24 -2 27 23 27 24 0
29 -4 29 -26z m138 -26 c-7 -20 -68 -23 -68 -4 0 12 10 16 36 16 24 0 34 -4
32 -12z m-32 -43 c-25 -19 -36 -19 -36 0 0 10 10 15 28 15 26 -1 26 -1 8 -15z"/>
</g>
</svg>
