<?xml version="1.0" standalone="no"?>
<!DOCTYPE svg PUBLIC "-//W3C//DTD SVG 20010904//EN"
 "http://www.w3.org/TR/2001/REC-SVG-20010904/DTD/svg10.dtd">
<svg version="1.0" xmlns="http://www.w3.org/2000/svg"
 width="64.000000pt" height="64.000000pt" viewBox="0 0 64.000000 64.000000"
 preserveAspectRatio="xMidYMid meet">
<metadata>
Created by potrace 1.10, written by Peter Selinger 2001-2011
</metadata>
<g transform="translate(0.000000,64.000000) scale(0.050000,-0.050000)"
fill="#f9f9f9" stroke="none">
<path d="M80 640 l0 -560 560 0 560 0 0 560 0 560 -560 0 -560 0 0 -560z m721
470 c171 -61 299 -206 330 -375 22 -120 -89 -113 -132 9 -40 113 -70 115 -123
8 -67 -140 -136 -74 -136 131 0 77 -54 171 -83 142 -10 -10 -24 -96 -31 -192
-15 -220 -73 -255 -97 -58 -26 211 -74 263 -100 109 -45 -266 -102 -306 -133
-96 -9 60 -54 61 -76 2 -43 -114 -86 -150 -71 -60 50 293 370 479 652 380z
m-507 -615 c23 -79 48 -125 66 -125 20 0 40 43 60 125 16 69 35 125 41 125 13
0 59 -214 59 -274 0 -22 13 -52 29 -65 38 -32 91 67 91 173 1 211 87 239 109
36 21 -196 58 -191 122 15 39 123 81 147 150 84 30 -27 36 -27 59 0 80 97 71
-61 -12 -203 -226 -390 -838 -284 -919 159 -13 73 -12 75 47 75 57 0 63 -7 98
-125z"/>
</g>
</svg>
